<?xml version="1.0" encoding="UTF-8" standalone="no"?>
<svg
   version="1.1"
   width="1000"
   height="1000"
   viewBox="-350 195 1000 1000"
   id="svg367"
   sodipodi:docname="robot-5702074.svg"
   inkscape:version="1.2.2 (b0a8486541, 2022-12-01)"
   xmlns:inkscape="http://www.inkscape.org/namespaces/inkscape"
   xmlns:sodipodi="http://sodipodi.sourceforge.net/DTD/sodipodi-0.dtd"
   xmlns:xlink="http://www.w3.org/1999/xlink"
   xmlns="http://www.w3.org/2000/svg"
   xmlns:svg="http://www.w3.org/2000/svg">
  <sodipodi:namedview
     id="namedview369"
     pagecolor="#ffffff"
     bordercolor="#000000"
     borderopacity="0.25"
     inkscape:showpageshadow="2"
     inkscape:pageopacity="0.0"
     inkscape:pagecheckerboard="0"
     inkscape:deskcolor="#d1d1d1"
     showgrid="false"
     inkscape:zoom="0.56638467"
     inkscape:cx="390.19418"
     inkscape:cy="543.80003"
     inkscape:window-width="1920"
     inkscape:window-height="1007"
     inkscape:window-x="0"
     inkscape:window-y="0"
     inkscape:window-maximized="1"
     inkscape:current-layer="svg367" />
  <g
     id="layer1"
     transform="translate(-307.96715,-5.10283)">
    <g
       style="fill:#b93b7b;fill-opacity:1;stroke-linejoin:miter"
       id="g4">
      <path
         d="m -357.7303,190.65746 1631.3949,0.001 V 1209.5472 l -1631.3949,10e-4 V 190.65746"
         id="path2" />
    </g>
    <g
       style="fill:#ffffff;fill-opacity:1;stroke-linejoin:miter"
       id="g8">
      <path
         d="m 103.11103,412.70563 22.46312,-3.56393 22.46313,-3.56382 q 51.14186,322.30302 102.28375,644.60612 -22.46297,3.5648 -44.92593,7.1297 Q 154.25305,735.00964 103.11103,412.70563"
         id="path6" />
    </g>
    <g
       style="fill:#00bce9;fill-opacity:1;stroke-linejoin:miter"
       id="g12">
      <path
         d="m 53.439938,425.241 42.039372,-6.6701 42.03939,-6.67017 q 51.20028,322.67111 102.40055,645.34217 -42.03923,6.6712 -84.07848,13.3422 L 53.439938,425.241"
         id="path10" />
    </g>
    <g
       style="fill:#000000;fill-opacity:0.14902;stroke-linejoin:miter"
       id="g16">
      <path
         d="m 1101.8394,1061.4817 -5.6097,2.9625 q -8.8627,1.9895 -25.3122,3.8021 -47.7617,4.3763 -66.4183,5.0392 -55.6585,3.0938 -141.66345,5.4796 -111.24011,2.7041 -137.58885,2.867 -96.8517,1.4391 -207.37214,1.6184 -143.52951,-0.012 -168.6919,-0.5178 -29.86866,-0.056 -149.31253,-1.9554 -92.06674,-1.708 -164.200168,-4.4939 -259.906382,-10.9609 -104.057186,-24.1479 5.880596,-0.9347 84.708225,-4.6843 71.268925,-2.9785 161.820189,-4.856 135.09481,-2.79 309.18179,-2.9462 58.02892,0.052 111.72559,0.3967 130.45038,1.1179 151.34163,1.6926 94.3956,1.5674 171.4614,4.3054 38.5329,1.3689 68.8283,2.8918 20.2962,0.6653 72.3521,4.9153 35.8786,3.5076 38.8072,7.6309"
         id="path14" />
    </g>
    <g
       style="fill:url(#linearGradient583);fill-opacity:1;stroke-linejoin:miter"
       id="g20">
      <path
         d="m 459.7,405.0852 c -1.62532,0.19672 -3.24654,0.4257 -4.96254,0.6825 -1.3801,0.1996 -2.80829,0.40503 -4.34143,0.6887 -0.32187,0.039 -0.65586,0.11196 -0.98987,0.18496 -37.94966,6.43847 -68.0278,24.62704 -86.03983,51.8537 -10.47049,15.88052 -16.64213,34.76751 -17.89973,55.13354 -1.1159,18.5689 1.5432,37.8398 8.04613,57.7071 3.87213,11.8912 5.30279,14.6736 15.74927,30.69976 7.35867,11.28967 9.53967,15.00994 12.48873,21.2981 4.17687,9.01361 5.37729,15.1546 4.77107,24.71411 -0.50456,7.16363 -1.81727,18.98023 -2.75703,24.84118 -0.21907,1.02255 -0.7287,4.36615 -1.21677,7.34778 -0.8533,5.36057 -1.17257,7.30977 -3.04144,17.36507 l -0.0639,0.0107 c -2.33812,5.5051 -5.6365,11.978 -9.69563,18.6412 -3.60889,6.2007 -6.78027,16.6912 -6.57957,23.4754 -0.0162,9.30884 -2.19426,14.65033 -9.57726,22.4506 -5.25704,5.5343 -9.93472,10.999 -10.67071,12.0678 -0.75397,1.0544 -3.8584,4.6795 -6.77927,7.6616 -18.98172,18.13543 -54.08521,73.1792 -52.56821,82.2044 l -0.59518,0.0747 q 96.69573,71.1228 215.90548,60.89001 2.17637,-0.23056 4.33268,-0.49146 55.61317,-6.73174 102.69297,-29.73766 l 1.8348,-0.21894 c -0.2046,-0.2066 -0.4069,-0.39434 -0.59125,-0.56805 -13.53729,-11.74982 -17.69975,-21.85905 -23.72632,-57.21345 -8.25537,-46.75927 -20.0954,-74.5686 -41.89068,-96.94445 -7.12345,-7.18725 -7.17465,-7.47509 -1.08442,-20.96385 0.22742,-0.5499 0.45472,-1.1001 0.67797,-1.68214 l 0.0487,-0.003 q -1.384,-0.37408 -2.8098,-0.82194 l -0.0319,0.006 c 0.90776,-3.42654 1.79826,-6.4571 2.711,-9.03287 1.4514,-4.06189 3.9937,-8.95783 5.4618,-10.58863 l 1.11045,-1.212 24.0982,0.5284 24.17835,0.5186 2.5357,-0.6335 c 3.2238,-0.7495 5.08435,-1.4316 7.78345,-2.73823 5.85602,-2.88027 11.61385,-8.99823 13.06879,-13.97437 1.15393,-4.09094 0.54516,-8.31146 -2.76837,-19.09466 -2.32123,-7.4419 -2.3407,-7.60309 -2.18337,-9.8097 0.31343,-3.07519 1.75746,-5.71504 5.6483,-9.99054 3.26926,-3.612 3.617,-4.1117 3.6352,-5.1751 0.0411,-1.2786 -0.6598,-2.4834 -2.90336,-5.1019 -2.33584,-2.7052 -3.18874,-4.0879 -2.88434,-4.8105 0.0731,-0.2047 0.95685,-0.99733 1.9648,-1.7072 4.61504,-3.2854 6.01915,-5.03904 6.1361,-7.71476 0.0773,-1.78904 -0.39234,-2.9729 -2.5902,-6.02148 -1.7876,-2.49402 -2.42146,-3.95216 -2.6341,-5.5755 -0.0857,-0.70801 -0.57887,-2.62406 -1.0389,-4.26611 -1.0278,-3.50035 -1.086,-5.0608 -0.2427,-6.32205 0.95493,-1.5525 2.7296,-2.4042 6.3631,-3.00724 0.3178,-0.0711 0.6357,-0.14246 0.98984,-0.18526 0.19122,-0.0392 0.3841,-0.0626 0.59346,-0.088 0.43443,-0.0525 0.88695,-0.0912 1.3536,-0.1477 0.0983,0.005 0.19503,-0.007 0.29165,-0.0189 0.17695,-0.0213 0.3681,-0.061 0.54505,-0.0823 1.29565,-0.222 2.4315,-0.686 5.04186,-1.91613 6.18604,-2.98577 8.67714,-5.06702 9.64034,-8.17151 0.79173,-2.49606 0.1462,-5.53646 -2.25166,-10.37286 -3.04024,-6.0979 -7.48468,-12.4667 -20.6565,-29.6979 -8.15527,-10.71965 -12.49504,-16.62767 -15.46104,-21.167 l -1.78865,-2.7715 0.76098,-1.8065 c 2.62543,-6.09757 2.98967,-11.85627 1.38507,-21.0669 -2.5424,-14.66467 -8.4386,-28.71094 -17.01873,-40.78345 -6.58667,-9.22795 -15.39454,-18.05643 -24.82343,-24.86667 -17.07144,-12.3508 -39.44114,-20.45218 -62.99911,-22.8584 -2.2309,-0.21968 -4.59238,-0.44012 -5.30373,-0.51718 -2.36736,-0.2686 -19.67543,-0.4106 -23.16246,-0.217 -5.20447,0.3033 -9.19854,0.62338 -13.22154,1.1104 z m 1.23024,28.37528 q 36.36749,-4.40186 66.84636,17.41302 30.2809,23.14472 36.3707,60.77732 5.0656,37.80548 -17.3215,68.68042 -22.72344,29.98449 -60.6784,36.24406 l -1.28705,0.1586 q -37.2045,4.5005 -67.51749,-17.5627 -29.84386,-22.77307 -36.07996,-60.535 -5.0637,-37.7894 17.31934,-68.69647 22.72544,-29.96866 60.64432,-36.25659 l 0.0164,5.6e-4 q 0.85054,-0.1219 1.68724,-0.22322 z"
         id="path18"
         style="fill:url(#linearGradient581)" />
    </g>
    <g
       style="fill:url(#linearGradient587);fill-opacity:1;stroke-linejoin:miter"
       id="g24">
      <path
         d="m 575.72906,515.7982 0.73499,13.7817 q -1.53795,42.1044 -30.26428,70.7136 -28.94797,28.616 -72.80234,29.17775 Q 431.293,627.9331 402.6839,599.207 q -9.17758,-9.29416 -15.77918,-20.7651 l -5.82309,-11.9097 q -5.11183,-12.4012 -6.84021,-26.34616 -4.10134,-42.94054 20.88471,-74.80814 24.98614,-31.86768 67.66517,-38.12976 42.94054,-4.10134 74.80825,20.88492 31.86761,24.98604 38.12951,67.66514"
         id="path22"
         style="fill:url(#linearGradient585)" />
    </g>
    <g
       style="fill:#ffffff;fill-opacity:1;stroke-linejoin:miter"
       id="g28">
      <path
         d="m 459.7,405.0852 c -1.62532,0.19672 -3.24654,0.4257 -4.96254,0.6825 -1.3801,0.1996 -2.80829,0.40503 -4.34143,0.6887 -0.32187,0.039 -0.65586,0.11196 -0.98987,0.18496 -37.94966,6.43847 -68.0278,24.62704 -86.03983,51.8537 -9.59219,14.54849 -15.57647,31.62011 -17.47993,50.04052 q 0.6408,-0.0786 1.2805,-0.15603 14.69138,-1.77825 28.88635,-2.8956 l 3e-5,6.1e-4 q -3e-5,-6.1e-4 -6e-5,-5.2e-4 3.22834,-0.2544 6.42848,-0.47414 l 8e-5,7.5e-4 q -1.2e-4,-6.1e-4 -1.2e-4,-4.9e-4 40.28226,-2.76672 76.5011,-0.12656 42.11074,6.55616 47.97226,11.27643 14.36963,5.91727 26.03113,15.44007 11.57935,9.6322 20.45005,22.8704 l 4.20107,7.05935 1.3e-4,6.1e-4 q -10e-4,0.002 -0.002,0.004 l 4.11775,6.91184 q 1.6617,3.1923 3.23156,6.50644 l 4e-5,6.6e-4 q -10e-4,0.002 -0.003,0.004 5.70973,12.04468 10.20394,25.7024 11.20396,32.42175 20.51629,95.98968 l 0.19257,0.004 2.5357,-0.6335 c 3.2238,-0.7495 5.08435,-1.4316 7.78345,-2.73823 5.85602,-2.88027 11.61385,-8.99823 13.06879,-13.97437 1.15393,-4.09094 0.54516,-8.31146 -2.76837,-19.09466 -2.32123,-7.4419 -2.3407,-7.60309 -2.18337,-9.8097 0.31343,-3.07519 1.75746,-5.71504 5.6483,-9.99054 3.26926,-3.612 3.617,-4.1117 3.6352,-5.1751 0.0411,-1.2786 -0.6598,-2.4834 -2.90336,-5.1019 -2.33584,-2.7052 -3.18874,-4.0879 -2.88434,-4.8105 0.0731,-0.2047 0.95685,-0.99733 1.9648,-1.7072 4.61504,-3.2854 6.01915,-5.03904 6.1361,-7.71476 0.0773,-1.78904 -0.39234,-2.9729 -2.5902,-6.02148 -1.7876,-2.49402 -2.42146,-3.95216 -2.6341,-5.5755 -0.0857,-0.70801 -0.57887,-2.62406 -1.0389,-4.26611 -1.0278,-3.50035 -1.086,-5.0608 -0.2427,-6.32205 0.95493,-1.5525 2.7296,-2.4042 6.3631,-3.00724 0.3178,-0.0711 0.6357,-0.14246 0.98984,-0.18526 0.19122,-0.0392 0.3841,-0.0626 0.59346,-0.088 0.43443,-0.0525 0.88695,-0.0912 1.3536,-0.1477 0.0983,0.005 0.19503,-0.007 0.29165,-0.0189 0.17695,-0.0213 0.3681,-0.061 0.54505,-0.0823 1.29565,-0.222 2.4315,-0.686 5.04186,-1.91613 6.18604,-2.98577 8.67714,-5.06702 9.64034,-8.17151 0.79173,-2.49606 0.1462,-5.53646 -2.25166,-10.37286 -3.04024,-6.0979 -7.48468,-12.4667 -20.6565,-29.6979 -8.15527,-10.71965 -12.49504,-16.62767 -15.46104,-21.167 l -1.78865,-2.7715 0.76098,-1.8065 c 2.62543,-6.09757 2.98967,-11.85627 1.38507,-21.0669 -2.5424,-14.66467 -8.4386,-28.71094 -17.01873,-40.78345 -6.58667,-9.22795 -15.39454,-18.05643 -24.82343,-24.86667 -17.07144,-12.3508 -39.44114,-20.45218 -62.99911,-22.8584 -2.2309,-0.21968 -4.59238,-0.44012 -5.30373,-0.51718 -2.36736,-0.2686 -19.67543,-0.4106 -23.16246,-0.217 -5.20447,0.3033 -9.19854,0.62338 -13.22154,1.1104 z"
         id="path26" />
    </g>
    <g
       style="fill:#000000;fill-opacity:1;stroke-linejoin:miter"
       id="g32">
      <path
         d="m 459.7,405.0852 c -1.62532,0.19672 -3.24654,0.4257 -4.96254,0.6825 -1.3801,0.1996 -2.80829,0.40503 -4.34143,0.6887 -0.32187,0.039 -0.65586,0.11196 -0.98987,0.18496 -30.74741,5.21664 -56.32758,18.14642 -74.50952,37.34726 q 23.30556,2.81842 45.86736,4.67285 l 10e-5,6.7e-4 q -5e-4,-4.6e-4 -9.2e-4,-1.2e-4 9.25012,0.7597 18.37287,1.35768 38.39947,1.8542 57.7558,-0.48876 0.18618,-0.0225 0.37072,-0.0454 2.99747,-0.27697 6.06726,-0.64855 8.34104,-1.00958 17.21577,-2.7175 -1e-4,-1.3e-4 -4e-4,-1.6e-4 l 0.004,1.6e-4 q 12.9101,-2.4852 26.94954,-6.44764 9.92416,-2.78601 22.99902,-7.33358 c -1.99246,-1.67686 -4.03666,-3.27276 -6.11102,-4.77088 -17.07144,-12.3508 -39.44114,-20.45218 -62.99911,-22.8584 -2.2309,-0.21968 -4.59238,-0.44012 -5.30373,-0.51718 -2.36736,-0.2686 -19.67543,-0.4106 -23.16246,-0.217 -5.20447,0.3033 -9.19854,0.62338 -13.22154,1.1104 z"
         id="path30" />
    </g>
    <g
       style="fill:#346875;fill-opacity:0.996078;stroke-linejoin:miter"
       id="g36">
      <path
         d="m 631.642,685.7999 v 3e-4 1.5e-4 -4.5e-4"
         id="path34" />
    </g>
    <g
       style="fill:#346875;fill-opacity:1;stroke-linejoin:miter"
       id="g40">
      <path
         d="m 414.4193,544.3793 -2e-5,1e-4 -8e-5,6e-5 8e-5,-6e-5 2e-5,-1e-4 -2e-5,1e-4 -8e-5,6e-5 q 8e-5,-6e-5 1e-4,-1.6e-4"
         id="path38" />
    </g>
    <g
       style="fill:#346875;fill-opacity:0.996078;stroke-linejoin:miter"
       id="g44">
      <path
         d="m 414.4193,544.3793 -2e-5,1e-4 -8e-5,6e-5 8e-5,-6e-5 2e-5,-1e-4 -2e-5,1e-4 -8e-5,6e-5 q 8e-5,-6e-5 1e-4,-1.6e-4"
         id="path42" />
    </g>
    <g
       style="fill:url(#linearGradient591);fill-opacity:1;stroke-linejoin:miter"
       id="g48">
      <path
         d="m 604.67285,496.72583 q -4.97775,0.6026 -10.29278,1.9252 -18.97657,5.36554 -29.52177,16.66434 -0.1309,0.14023 -0.25985,0.28063 1.8e-4,0.002 4.5e-4,0.004 l -0.004,10e-4 q -10.2477,11.16536 -7.5867,23.09266 1.0527,3.88978 3.58866,7.05124 l 1.78394,1.8564 5e-5,6e-4 q -5.5e-4,10e-4 -10e-4,0.003 l 1.06184,1.0999 q 3.1842,2.7683 7.4779,4.6925 12.1308,5.3738 28.7795,3.3588 1.7138,-0.20755 3.47525,-0.4933 13.70862,-2.66567 23.88495,-8.688 c -1.6983,-2.26197 -3.59845,-4.7621 -5.72626,-7.5458 -8.15527,-10.71965 -12.49504,-16.62767 -15.46104,-21.167 l -1.78865,-2.7715 0.76098,-1.8065 c 2.29847,-5.338 2.86397,-10.41645 1.89247,-17.7786 q -1.0219,0.0939 -2.06355,0.22003 z"
         id="path46"
         style="fill:url(#linearGradient589)" />
    </g>
    <g
       style="fill:#346875;fill-opacity:0.631373;stroke-linejoin:miter"
       id="g52">
      <path
         d="M 500.92487,519.93176 604.5115,473.8991 q 9.8397,14.2741 18.5062,28.34593 3.2003,5.06357 9.4638,17.53257 3.11506,8.0818 3.832,15.78014 0.58115,3.77991 -2.07266,16.91852 l -126.23019,24.09289 -7.08578,-56.63739"
         id="path50" />
    </g>
    <g
       style="fill:#000000;fill-opacity:1;stroke-linejoin:miter"
       id="g56">
      <path
         d="m 525.5002,536.12256 1.233,8.05944 q 1.54317,24.843 -13.6825,43.3313 -15.35624,18.5056 -41.10707,21.38306 -24.84423,1.54104 -43.33371,-13.68686 -18.50592,-15.35794 -21.38362,-41.1083 -1.54142,-24.843 13.68547,-43.3301 15.35657,-18.5036 41.1059,-21.38 24.84241,-1.5406 43.33087,13.68562 5.93561,4.93085 10.48326,11.29102 l 4.1155,6.66351 q 3.7261,6.99365 5.5529,15.09131"
         id="path54" />
    </g>
    <g
       style="fill:#ffffff;fill-opacity:1;stroke-linejoin:miter"
       id="g60">
      <path
         d="m 479.4889,546.8561 0.28472,1.8595 q 0.35668,5.73167 -3.15588,9.99766 -3.54254,4.26994 -9.48352,4.93444 -5.73182,0.3562 -9.99796,-3.1565 -4.27008,-3.54284 -4.93486,-9.48375 -0.35664,-5.73169 3.15596,-9.99755 3.54254,-4.2698 9.48346,-4.9342 5.73175,-0.3561 9.99796,3.1565 1.36962,1.13755 2.419,2.6048 l 0.94968,1.53727 q 0.85984,1.61353 1.28144,3.48183"
         id="path58" />
    </g>
    <g
       style="fill:#ffffff;fill-opacity:1;stroke-linejoin:miter"
       id="g64">
      <path
         d="m 393.18146,541.7617 v 0 10e-5 -10e-5 0 0 10e-5 q 0,-10e-5 0,-10e-5"
         id="path62" />
    </g>
    <g
       style="fill:#65ff00;fill-opacity:1;stroke-linejoin:miter"
       id="g68">
      <path
         d="m 370.47583,448.89102 -3e-5,1.8e-4 v 2.2e-4 -2.2e-4 l 3e-5,-1.8e-4 -3e-5,1.8e-4 v 2.2e-4 q 0,-2.2e-4 3e-5,-4e-4"
         id="path66" />
    </g>
    <g
       style="fill:#65ff00;fill-opacity:1;stroke-linejoin:miter"
       id="g72">
      <path
         d="m 378.5547,478.8453 -7e-5,1.6e-4 v 1.8e-4 -1.8e-4 l 7e-5,-1.6e-4 -7e-5,1.6e-4 v 1.8e-4 q 0,-1.8e-4 7e-5,-3.4e-4"
         id="path70" />
    </g>
    <g
       style="fill:#ffffff;fill-opacity:1;stroke-linejoin:miter"
       id="g76">
      <path
         d="m 382.604,679.90826 c -0.0204,0.11054 -0.0382,0.21974 -0.056,0.32837 -0.8533,5.36057 -1.17257,7.30977 -3.04144,17.36507 l -0.0639,0.0107 c -1.04768,2.46676 -2.28813,5.1277 -3.70338,7.9132 l 48.15288,12.50003 26.85902,10.09882 31.24283,-2.95945 44.36565,0.8162 11.0759,-0.1063 c 0.72865,-1.8539 1.73634,-4.1036 3.01453,-6.9347 0.22742,-0.5499 0.45472,-1.1001 0.67797,-1.68214 l 0.0487,-0.003 q -1.384,-0.37408 -2.8098,-0.82194 l -0.0319,0.006 c 0.90776,-3.42654 1.79826,-6.4571 2.711,-9.03287 0.51097,-1.43013 1.15727,-2.96368 1.84416,-4.42143 l -3.99556,-1.11287 -86.37752,-3.19739 z m 136.50257,28.20789 q -0.13777,0.39815 -0.27177,0.79595 l -0.003,10e-4 q 0.13726,-0.39885 0.27136,-0.79655 z m -16.24367,0.33595 v 5.4e-4 c 10e-4,-5.4e-4 0.002,-5.4e-4 0.003,-5.4e-4 l -4.73401,14.04863 1.2e-4,7.7e-4 4.73035,-14.0491 -0.003,10e-4 5e-5,-10e-4 z m 32.6064,-1.09474 v 6.4e-4 -6.4e-4 l -4.68713,13.92924 4.69079,-13.9295 0.004,2.6e-4 -4.69667,13.93457 -0.007,0.02 -2e-4,8e-4 0.008,-0.0257 -0.003,0.0102 0.002,-0.005 7.7e-4,-0.002 0.001,-0.003 -1.3e-4,2.7e-4 4.68726,-13.92951 v 6.4e-4 z"
         id="path74" />
    </g>
    <g
       style="fill:#65ff00;fill-opacity:1;stroke-linejoin:miter"
       id="g80">
      <path
         d="m 470.20972,707.3138 -4.69236,13.9362 4.68918,-13.9358 z"
         id="path78" />
    </g>
    <g
       style="fill:#65ff00;fill-opacity:1;stroke-linejoin:miter"
       id="g84">
      <path
         d="m 535.473,707.3569 -4.6994,13.955 4.6957,-13.95454 z"
         id="path82" />
    </g>
    <g
       style="fill:#65ff00;fill-opacity:1;stroke-linejoin:miter"
       id="g88">
      <path
         d="m 502.8629,708.4521 -4.73698,14.0674 4.73338,-14.067 z"
         id="path86" />
    </g>
    <g
       style="fill:#65ff00;fill-opacity:1;stroke-linejoin:miter"
       id="g92">
      <path
         d="m 470.20972,707.3138 -4.69236,13.9362 4.68918,-13.9358 z"
         id="path90" />
    </g>
    <g
       style="fill:#65ff00;fill-opacity:1;stroke-linejoin:miter"
       id="g96">
      <path
         d="m 519.10297,708.1163 q -0.13404,0.39786 -0.26817,0.7958 l -0.003,10e-4 q 0.13386,-0.3985 0.26776,-0.79645 z"
         id="path94" />
    </g>
    <g
       style="fill:#7ce3ff;fill-opacity:1;stroke-linejoin:miter"
       id="g100">
      <path
         d="m 397.9292,689.32556 2.96573,0.99799 2.96577,0.99805 q -3.0869,9.1739 -6.17375,18.34796 -2.96588,-0.99786 -5.93173,-1.99566 3.087,-9.17427 6.17398,-18.34834"
         id="path98" />
    </g>
    <g
       style="fill:#7ce3ff;fill-opacity:1;stroke-linejoin:miter"
       id="g104">
      <path
         d="m 414.7819,694.4656 5.93148,1.99613 -6.17378,18.34777 -5.93175,-1.99566 6.17405,-18.34824"
         id="path102" />
    </g>
    <g
       style="fill:#7ce3ff;fill-opacity:1;stroke-linejoin:miter"
       id="g108">
      <path
         d="m 448.20804,702.439 2.96576,0.99813 2.96576,0.99807 q -3.08696,9.1738 -6.1738,18.34776 -2.96591,-0.99786 -5.9317,-1.99566 3.08697,-9.17414 6.17398,-18.3483"
         id="path106" />
    </g>
    <g
       style="fill:#7ce3ff;fill-opacity:1;stroke-linejoin:miter"
       id="g112">
      <path
         d="m 431.51422,698.6111 5.93146,1.9961 -6.17378,18.34794 -5.93175,-1.99579 6.17407,-18.34825"
         id="path110" />
    </g>
    <g
       style="fill:#7ce3ff;fill-opacity:1;stroke-linejoin:miter"
       id="g116">
      <path
         d="m 464.65158,704.199 5.93149,1.9962 -6.17377,18.34777 -5.93167,-1.99567 6.17395,-18.3483"
         id="path114" />
    </g>
    <g
       style="fill:#7ce3ff;fill-opacity:1;stroke-linejoin:miter"
       id="g120">
      <path
         d="m 480.95886,704.83295 2.9657,0.9981 2.96574,0.99811 q -3.08686,9.17394 -6.1737,18.3479 -2.9659,-0.99786 -5.93178,-1.99572 3.08704,-9.17414 6.17404,-18.34839"
         id="path118" />
    </g>
    <g
       style="fill:#7ce3ff;fill-opacity:1;stroke-linejoin:miter"
       id="g124">
      <path
         d="m 497.26468,705.4554 5.93149,1.9961 -6.17374,18.34776 -5.93179,-1.99576 6.17404,-18.3481"
         id="path122" />
    </g>
    <g
       style="fill:#7ce3ff;fill-opacity:1;stroke-linejoin:miter"
       id="g128">
      <path
         d="m 513.46783,705.229 2.9657,0.9981 2.9657,0.9982 q -3.08679,9.17375 -6.17373,18.3477 -2.96576,-0.9978 -5.93168,-1.99567 3.08701,-9.17413 6.17401,-18.34833"
         id="path126" />
    </g>
    <g
       style="fill:#7ce3ff;fill-opacity:1;stroke-linejoin:miter"
       id="g132">
      <path
         d="m 529.6676,704.9754 5.93146,1.9961 -6.17383,18.34784 -5.93163,-1.99554 6.174,-18.3484"
         id="path130" />
    </g>
    <g
       style="fill:#7ce3ff;fill-opacity:1;stroke-linejoin:miter"
       id="g136">
      <path
         d="m 384.6725,684.5067 5.9315,1.9963 -6.1738,18.3477 -5.93176,-1.9956 6.17406,-18.3484"
         id="path134" />
    </g>
    <g
       style="fill:#535d66;fill-opacity:0.345098;stroke-linejoin:miter"
       id="g140">
      <path
         d="m 436.82382,702.46344 -4.4696,13.2749 1.2e-4,7.6e-4 4.46652,-13.27523 z"
         id="path138" />
    </g>
    <g
       style="fill:#535d66;fill-opacity:0.345098;stroke-linejoin:miter"
       id="g144">
      <path
         d="m 420.06317,698.402 -4.31625,12.81944 4.31348,-12.81904 z"
         id="path142" />
    </g>
    <g
       style="fill:#535d66;fill-opacity:0.345098;stroke-linejoin:miter"
       id="g148">
      <path
         d="m 389.84796,688.7569 -4.04831,12.0242 4.04578,-12.02396 z"
         id="path146" />
    </g>
    <g
       style="fill:#ffffff;fill-opacity:1;stroke-linejoin:miter"
       id="g152">
      <path
         d="m 379.1931,698.1952 c -1.14345,2.64904 -2.50246,5.5107 -4.0554,8.50146 24.9152,9.90884 50.6898,18.84088 79.06637,22.71337 25.81235,3.52297 53.67966,2.84307 81.89816,0.97852 0.29837,-2.21545 1.49497,-5.09325 3.54242,-9.65949 -29.41421,2.05518 -57.96197,2.94941 -84.17025,-0.62736 -27.1001,-3.6984 -51.81485,-12.197 -76.27897,-21.90675 z"
         id="path150" />
    </g>
    <g
       style="fill:#ffffff;fill-opacity:1;stroke-linejoin:miter"
       id="g156">
      <path
         d="m 383.32278,675.4237 c -0.22995,1.41443 -0.50561,3.1687 -0.77478,4.81293 -0.33883,2.12842 -0.5934,3.71907 -0.89428,5.49277 23.36198,8.82877 47.60118,16.4091 73.89361,19.9973 27.02713,3.6886 56.12497,3.1424 85.64117,1.2879 1.47025,-3.9797 3.89823,-8.61805 5.3194,-10.1968 l 0.3889,-0.4245 c -31.43165,2.15547 -61.92985,3.03224 -89.96727,-0.7941 -26.02429,-3.5517 -50.02673,-11.1719 -73.6044,-20.17586 z"
         id="path154" />
    </g>
    <g
       style="fill:#ff0076;fill-opacity:1;stroke-linejoin:miter"
       id="g160">
      <path
         d="m 545.3374,629.42816 v 2.4e-4 3e-4 -5.4e-4"
         id="path158" />
    </g>
    <g
       style="fill:#4cc0ff;fill-opacity:1;stroke-linejoin:miter"
       id="g164">
      <path
         d="m 560.7673,656.8615 v 5e-4 3.7e-4 -8.7e-4"
         id="path162" />
    </g>
    <g
       style="fill:url(#linearGradient595);fill-opacity:0.0666667;stroke-linejoin:miter"
       id="g168">
      <path
         d="m 459.7,405.0852 7e-5,7e-4 c -1.62539,0.19602 -3.246,0.42872 -4.96261,0.6818 -1.37958,0.20337 -2.80533,0.42157 -4.34143,0.6887 -0.3194,0.0555 -0.6528,0.1276 -0.98987,0.18496 -37.94699,6.45424 -68.0434,24.61674 -86.03983,51.8537 -10.48605,15.8702 -16.65813,34.76664 -17.89973,55.13354 -1.13197,18.56793 1.55455,37.8361 8.04613,57.7071 3.88342,11.88757 5.30294,14.6735 15.74927,30.69976 7.35885,11.28954 9.55666,15.00194 12.48873,21.2981 4.19387,9.0058 5.40583,15.15649 4.77107,24.71411 -0.47602,7.16559 -1.7716,18.98767 -2.75703,24.84118 -0.17361,1.03115 -0.73712,4.36465 -1.21677,7.34778 -0.86175,5.35927 -1.17257,7.30977 -3.04144,17.36507 l -0.0639,0.0107 c -2.33812,5.5051 -5.7007,11.9394 -9.69563,18.6412 -3.67349,6.1627 -6.65735,16.6887 -6.57957,23.4754 0.10673,9.3082 -2.1885,14.65595 -9.57726,22.4506 -5.25128,5.53976 -9.92532,11.00564 -10.67071,12.0678 -0.74463,1.06113 -3.7743,4.7643 -6.77927,7.6616 -18.89906,18.2216 -54.08521,73.1792 -52.56821,82.2044 l -0.59518,0.0747 c 64.46386,47.41515 136.43475,67.74025 215.90548,60.89001 1.45362,-0.12542 2.89515,-0.31756 4.33268,-0.49146 37.07544,-4.4877 71.30647,-14.4001 102.69297,-29.73766 l 1.8348,-0.21894 c -0.2046,-0.2066 -0.4002,-0.40203 -0.59125,-0.56805 -13.53065,-11.75765 -17.58069,-21.8797 -23.72632,-57.21345 -8.13629,-46.78014 -20.04783,-74.6151 -41.89068,-96.94445 -7.07625,-7.23385 -7.15785,-7.46755 -1.08442,-20.96385 0.24421,-0.5426 0.45472,-1.1001 0.67797,-1.68214 l 0.0487,-0.003 c -0.9227,-0.24944 -1.85936,-0.52334 -2.8098,-0.82194 l -0.0319,0.006 c 0.90776,-3.42654 1.7941,-6.4586 2.711,-9.03287 1.44725,-4.06343 3.9937,-8.95783 5.4618,-10.58863 l 1.11045,-1.212 0.29685,0.006 -0.46635,-4.91304 -40.0672,-66.5746 c -2.03741,0.6635 -4.10757,1.26523 -6.2102,1.80564 l -0.002,8.6e-4 c 2.10214,-0.5407 4.1716,-1.1427 6.20832,-1.80604 l -6.62382,-11.01251 -0.003,10e-4 -35.0549,-62.4607 3.95654,-61.3324 c -0.001,-1e-4 -0.002,-1e-4 -0.003,-1e-4 l 0.004,3.8e-4 2.7406,-38.49295 c -0.001,0 -0.002,0 -0.004,0 l 0.004,2.2e-4 3.34088,-46.9234 c -1.23776,0.014 -2.22287,0.0357 -2.81259,0.07 -5.20456,0.30184 -9.19854,0.62338 -13.22154,1.1104 l 7e-5,7e-4 z m -77.21834,99.92496 1.2e-4,6.1e-4 c 0.002,-8.7e-4 0.003,-10e-4 0.005,-10e-4 l -0.005,10e-4 c 0,-5.2e-4 0,-8e-4 0,-8.9e-4 l 1.2e-4,6.1e-4 z m -6.42859,0.4744 9e-5,6.1e-4 c 0.002,-7.3e-4 0.003,-8.9e-4 0.005,-10e-4 l -0.002,8.9e-4 c -0.3284,1.50285 -0.62293,3.01885 -0.88361,4.54797 l -0.002,8.8e-4 c 0.26047,-1.5296 0.55478,-3.046 0.88281,-4.54934 l 9e-5,6.1e-4 z m 84.31351,181.10321 1.2e-4,6.3e-4 c 0.002,-5e-4 0.004,-4.5e-4 0.006,-2.7e-4 l -0.006,10e-4 c -6e-5,-8e-4 -1.2e-4,-10e-4 -6e-5,-0.002 l 1.2e-4,6.3e-4 z"
         id="path166"
         style="fill:url(#linearGradient593)" />
    </g>
    <g
       style="fill:#3c464f;fill-opacity:1;stroke-linejoin:miter"
       id="g172">
      <path
         d="m 530.8024,721.22626 -0.006,0.0187 -0.004,0.0121 2e-4,-8e-4 z"
         id="path170" />
    </g>
    <g
       style="fill:#3c464f;fill-opacity:1;stroke-linejoin:miter"
       id="g176">
      <path
         d="m 530.80206,721.2276 -0.006,0.0178 10e-4,-0.004 z"
         id="path174" />
    </g>
    <g
       style="fill:#3c464f;fill-opacity:1;stroke-linejoin:miter"
       id="g180">
      <path
         d="m 535.47296,707.3571 -4.6709,13.8705 0.0199,-0.0591 1.4e-4,5.4e-4 z"
         id="path178" />
    </g>
    <g
       style="fill:#3c464f;fill-opacity:1;stroke-linejoin:miter"
       id="g184">
      <path
         d="m 498.1323,722.5006 -7e-5,1.3e-4 1.2e-4,7.7e-4 z"
         id="path182" />
    </g>
    <g
       style="fill:#ffffff;fill-opacity:1;stroke-linejoin:miter"
       id="g188">
      <path
         d="m 425.3826,746.396 q -15.22135,1.84246 -28.67856,9.0122 -19.18497,10.172 -30.80612,32.31964 -17.96992,33.23456 -23.89386,111.35181 72.8464,33.21161 156.87829,25.99841 2.17637,-0.23056 4.33268,-0.49146 14.96631,-1.8116 29.31467,-4.80157 -0.9409,-42.25659 -6.1546,-80.05908 -4.19267,-27.69488 -14.64628,-48.85845 -11.49072,-21.63325 -28.2251,-31.5903 -2.53272,-2.3929 -18.15936,-8.6783 -12.87564,-4.3691 -26.47238,-4.8002 -6.90952,-0.1991 -13.48938,0.5973 z"
         id="path186" />
    </g>
    <g
       style="fill:#000000;fill-opacity:1;stroke-linejoin:miter"
       id="g192">
      <path
         d="m 425.71042,771.0723 q -14.40964,1.7442 -27.14932,8.5316 -18.1621,9.62974 -29.16364,30.5963 -15.36829,28.4232 -21.42993,91.52276 70.31192,30.27394 150.91482,23.3551 2.17637,-0.23056 4.33268,-0.49146 11.93367,-1.44463 23.47447,-3.6383 -1.32396,-32.17865 -5.3709,-61.5223 -3.96905,-26.2181 -13.86535,-46.2532 -10.87815,-20.4801 -26.7204,-29.9062 -2.39752,-2.26544 -17.19101,-8.2156 -12.18924,-4.1361 -25.06101,-4.5442 -6.5411,-0.1884 -12.77013,0.5655 z"
         id="path190" />
    </g>
    <g
       style="fill:#000000;fill-opacity:1;stroke-linejoin:miter"
       id="g196">
      <path
         d="m 381.8269,623.49835 c 0,0 0,0 0,0 l 4e-4,6.5e-4 c -6e-5,-7e-4 -6e-5,-7e-4 -6e-5,-7e-4 z"
         id="path194" />
    </g>
    <g
       style="fill:#000000;fill-opacity:1;stroke-linejoin:miter"
       id="g200">
      <path
         d="m 353.55798,571.4746 c 3.2e-4,10e-4 6.2e-4,0.002 8.9e-4,0.003 l 2.3e-4,6.5e-4 c -3.8e-4,-0.002 -7e-4,-0.003 -10e-4,-0.004 z"
         id="path198" />
    </g>
    <g
       style="fill:#000000;fill-opacity:1;stroke-linejoin:miter"
       id="g204">
      <path
         d="m 383.57272,673.92194 c -0.0738,0.42736 -0.15826,0.93756 -0.24994,1.50176 0.007,10e-4 0.0111,0.003 0.0155,0.005 -0.004,-0.002 -0.009,-0.003 -0.0132,-0.005 0.0906,-0.56394 0.17437,-1.07404 0.2479,-1.50144 z"
         id="path202" />
    </g>
    <g
       style="fill:#000000;fill-opacity:1;stroke-linejoin:miter"
       id="g208">
      <path
         d="m 351.60065,565.1296 9e-5,7e-4 c 0.59534,2.0615 1.23266,4.13026 1.91199,6.2054 -0.67789,-2.07496 -1.31423,-4.1432 -1.90909,-6.20496 l -0.003,-10e-4 z"
         id="path206" />
    </g>
    <g
       style="fill:#2cfa12;fill-opacity:0.603922;stroke-linejoin:miter"
       id="g212">
      <path
         d="m 547.9441,695.50073 -0.2658,-5.21283 q -2.34993,-37.85064 1.61595,-61.09155 3.2746,-19.56 15.5575,-53.23828 -15.72525,20.52673 -20.61872,25.06293 -7.17073,7.5396 -12.61853,11.1022 -5.3077,4.0432 -13.6728,7.4898 -15.6897,5.8264 -25.68975,7.6841 l 55.69215,68.20363"
         id="path210" />
    </g>
    <g
       style="fill:#06485a;fill-opacity:1;stroke-linejoin:miter"
       id="g216">
      <path
         d="m 605.1785,712.91974 -2e-4,3.6e-4 v 5.5e-4 l 2e-4,-9.1e-4"
         id="path214" />
    </g>
    <g
       style="fill:#ffffff;fill-opacity:1;stroke-linejoin:miter"
       id="g220">
      <path
         d="m 616.57196,622.1392 -1.2e-4,2.7e-4 q -334.30994,48.82923 1.2e-4,-2.7e-4"
         id="path218" />
    </g>
    <g
       style="fill:#ffffff;fill-opacity:1;stroke-linejoin:miter"
       id="g224">
      <path
         d="m 576.9723,751.10565 v 2.5e-4 l -10e-5,2.4e-4 10e-5,-4.9e-4"
         id="path222" />
    </g>
    <g
       style="fill:#ffffff;fill-opacity:1;stroke-linejoin:miter"
       id="g228">
      <path
         d="m 413.62094,475.52982 v 1.5e-4 1.3e-4 -1.3e-4 -1.5e-4 1.5e-4 1.3e-4 q 0,-1.3e-4 0,-2.8e-4"
         id="path226" />
    </g>
    <g
       style="fill:#ffffff;fill-opacity:1;stroke-linejoin:miter"
       id="g232">
      <path
         d="m 364.54227,422.2744 v 1.4e-4 l -3e-5,2.1e-4 3e-5,-2.1e-4 v -1.4e-4 1.4e-4 l -3e-5,2.1e-4 q 3e-5,-2.1e-4 3e-5,-3.5e-4"
         id="path230" />
    </g>
    <g
       style="fill:#ffffff;fill-opacity:1;stroke-linejoin:miter"
       id="g236">
      <path
         d="m 364.54227,422.2744 v 1.4e-4 l -3e-5,2.1e-4 3e-5,-2.1e-4 v -1.4e-4 1.4e-4 l -3e-5,2.1e-4 q 3e-5,-2.1e-4 3e-5,-3.5e-4"
         id="path234" />
    </g>
    <g
       style="fill:#ffffff;fill-opacity:1;stroke-linejoin:miter"
       id="g240">
      <path
         d="m 423.6471,637.3027 v 1e-4 h 3e-5 -3e-5 v -1e-4 1e-4 h 3e-5 q -3e-5,0 -3e-5,-1e-4"
         id="path238" />
    </g>
    <g
       style="fill:#ff001e;fill-opacity:1;stroke-linejoin:miter"
       id="g244">
      <path
         d="m 433.1154,634.1676 25.05846,1.6237 25.05844,1.6242 q -1.70282,26.2768 -3.40555,52.55356 -25.05847,-1.6236 -50.11685,-3.24716 1.7027,-26.27714 3.4055,-52.5543"
         id="path242" />
    </g>
    <g
       style="fill:#535d66;fill-opacity:1;stroke-linejoin:miter"
       id="g248">
      <path
         d="m 434.9926,636.41016 23.04433,1.49334 23.04427,1.4935 q -1.56597,24.1648 -3.1319,48.32944 -23.0442,-1.49324 -46.08846,-2.98614 1.56589,-24.165 3.13176,-48.33014"
         id="path246" />
    </g>
    <g
       style="fill:#ffffff;fill-opacity:1;stroke-linejoin:miter"
       id="g252">
      <path
         d="m 453.21567,637.3138 5.14789,0.3333 5.14774,0.3333 q -1.57642,24.3678 -3.153,48.73536 -5.14785,-0.3327 -10.29574,-0.66526 1.57657,-24.3683 3.15311,-48.7367"
         id="path250" />
    </g>
    <g
       style="fill:#1dff00;fill-opacity:1;stroke-linejoin:miter"
       id="g256">
      <path
         d="m 444.4366,644.6058 12.96825,0.73 12.96795,0.7301 q -0.21402,3.8015 -0.42795,7.6029 -12.96792,-0.7297 -25.93612,-1.4595 0.2139,-3.8017 0.42787,-7.6035"
         id="path254" />
    </g>
    <g
       style="fill:#1dff00;fill-opacity:1;stroke-linejoin:miter"
       id="g260">
      <path
         d="m 443.68768,657.91254 25.93612,1.45986 -0.42782,7.6028 -25.93624,-1.4593 0.42794,-7.60336"
         id="path258" />
    </g>
    <g
       style="fill:#1dff00;fill-opacity:1;stroke-linejoin:miter"
       id="g264">
      <path
         d="m 442.93875,671.21924 12.9682,0.72976 12.96802,0.72996 q -0.21399,3.80151 -0.42783,7.60294 -12.96804,-0.72953 -25.93637,-1.4591 0.21393,-3.8018 0.42798,-7.60356"
         id="path262" />
    </g>
    <g
       style="fill:#3c464f;fill-opacity:1;stroke-linejoin:miter"
       id="g268">
      <path
         d="m 450.07407,685.9202 q -0.007,0.0653 -0.0115,0.1303 0.004,-0.065 0.008,-0.12985 z"
         id="path266" />
    </g>
    <g
       style="fill:#000000;fill-opacity:1;stroke-linejoin:miter"
       id="g272">
      <path
         d="m 460.36768,686.5872 q -8e-5,10e-4 -1.6e-4,0.002 l -9.4e-4,8e-4 q 8.79192,0.56656 17.58272,1.13614 -8.7908,-0.56958 -17.58162,-1.13924 z"
         id="path270" />
    </g>
    <g
       style="fill:#000000;fill-opacity:1;stroke-linejoin:miter"
       id="g276">
      <path
         d="m 463.4934,638.2573 17.5878,1.1397 4e-5,6e-4 -17.58667,-1.14034 z"
         id="path274" />
    </g>
    <g
       style="fill:#ced2d5;fill-opacity:1;stroke-linejoin:miter"
       id="g280">
      <path
         d="m 590.926,711.699 -4e-5,1.6e-4 v 0 l 4e-5,-1.6e-4"
         id="path278" />
    </g>
    <g
       style="fill:#000000;fill-opacity:1;stroke-linejoin:miter"
       id="g284">
      <path
         d="m 366.71472,487.4116 -0.99136,4.44976 q -3.42871,13.36184 -8.68534,20.73898 -5.28057,7.3656 -9.96102,4.84876 -4.33255,-3.08014 -5.12912,-14.02 -0.24948,-3.53463 -0.0577,-7.60668 l 0.30813,-4.16425 q 0.42148,-4.27767 1.3205,-8.84079 2.89737,-13.97586 8.01126,-22.62442 5.11395,-8.6485 10.11238,-8.02576 4.85835,1.3295 6.2896,11.27436 1.43124,9.94484 -1.21738,23.97004"
         id="path282" />
    </g>
    <g
       style="fill:#000000;fill-opacity:1;stroke-linejoin:miter"
       id="g288">
      <path
         d="m 166.00926,718.2526 v 0 c 11.42684,-0.9251 23.19655,-1.88206 33.94081,-1.88206 v 0 c 13.35088,0 26.62081,1.43126 35.99192,7.47571 v 5e-5 c 7.979,5.1465 12.34341,13.18995 15.89468,19.5233 v 0 c 3.94431,7.0344 7.11683,12.45035 12.54703,15.9528 l 1.2e-4,5e-5 c 0.54608,0.35229 1.11642,0.68535 1.71735,0.99915 l -2.2e-4,-2e-4 c 3.34128,1.7447 7.63485,2.894 12.09025,2.894 v 0 c 10.74035,0 24.9837,-6.8066 25.24258,-36.841 v 0 c 0.18014,-20.8965 -6.52436,-51.7063 -13.66333,-84.3106 v 0 c -7.26565,-33.1829 -14.96518,-68.16353 -14.74698,-93.473 v -4e-5 c 0.005,-0.61226 0.0152,-1.22116 0.0298,-1.82446 v -10e-5 c 1.2815,-52.88485 38.77033,-62.0075 70.59992,-70.02474 3.54168,-0.89206 7.13601,1.25584 8.02803,4.7976 0.89213,3.54172 -1.25585,7.1359 -4.79753,8.02796 v 0 c -32.62241,8.21695 -59.58573,15.3284 -60.60813,57.51968 v -1.5e-4 c -0.0128,0.53185 -0.0216,1.0733 -0.0264,1.61828 v -3e-5 c -0.2023,23.46695 7.04095,56.7315 14.44137,90.53006 v 0 c 6.9939,31.94154 14.16513,64.50348 13.96897,87.25354 v 0 c -0.30866,35.80634 -19.06482,49.9533 -38.46832,49.9533 v 0 c -6.6115,0 -13.003,-1.67626 -18.21192,-4.39605 l -1.8e-4,-1.2e-4 c -0.96338,-0.50303 -1.8823,-1.03937 -2.76453,-1.6084 l 1.3e-4,7e-5 C 248.59886,764.88 244.0001,756.4368 240.30023,749.83844 h 3e-5 c -3.84862,-6.86364 -6.7656,-11.80604 -11.52738,-14.8775 l 3e-5,1.2e-4 c -5.87434,-3.789 -15.66893,-5.36426 -28.82286,-5.36426 v 0 c -10.10809,0 -21.31787,0.9033 -32.87352,1.83887 -3.64041,0.29473 -6.83047,-2.41747 -7.12518,-6.05787 -0.29474,-3.6404 2.41748,-6.83044 6.05789,-7.1252 z"
         id="path286" />
    </g>
    <g
       style="fill:#ffffff;fill-opacity:1;stroke-linejoin:miter"
       id="g292">
      <path
         d="m 33.313385,427.01974 18.70134,-2.96694 18.701339,-2.9669 Q 121.85793,743.389 172.9998,1065.6923 l -37.40237,5.9355 L 33.313385,427.01974"
         id="path290" />
    </g>
    <g
       style="fill:#ffffff;fill-opacity:1;stroke-linejoin:miter"
       id="g296">
      <path
         d="m 242.9056,969.7062 v 2e-4 l -99.93235,57.2876 q 46.04545,6.0084 92.09095,12.017 l 7.8414,-69.3048"
         id="path294" />
    </g>
    <g
       style="fill:#000000;fill-opacity:0.996078;stroke-linejoin:miter"
       id="g300">
      <path
         d="m 100.44289,405.83762 v 1.8e-4 l -2e-5,1.8e-4 2e-5,-3.6e-4"
         id="path298" />
    </g>
    <g
       style="fill:#ffffff;fill-opacity:1;stroke-linejoin:miter"
       id="g304">
      <path
         d="m 147.65468,405.65582 -44.05895,2.7273 -68.707466,18.71498 27.041246,-3.8948 q -5.99214,4.12098 -6.664995,5.5589 -0.970765,1.8626 3.71006,1.57447 4.717487,-0.075 24.575525,-4.53882 11.04233,-2.34921 62.39059,-15.2384 l 1.71399,-4.90363"
         id="path302" />
    </g>
    <g
       style="fill:#000000;fill-opacity:0.996078;stroke-linejoin:miter"
       id="g308">
      <path
         d="m 260.72372,958.892 10e-5,10e-4 8e-5,10e-4 -1.8e-4,-0.002"
         id="path306" />
    </g>
    <g
       style="fill:#ffffff;fill-opacity:1;stroke-linejoin:miter"
       id="g312">
      <path
         d="m 235.97777,978.41125 273.01249,6.2e-4 273.01254,5.3e-4 q 0,36.306 2.5e-4,72.612 -273.01269,5e-4 -546.02528,7e-4 0,-36.3068 0,-72.61385"
         id="path310" />
    </g>
    <g
       style="fill:#535d66;fill-opacity:0.996078;stroke-linejoin:miter"
       id="g316">
      <path
         d="m 650.9663,989.95795 v 1.2e-4 l 74.91255,-2.25947 q -0.0704,16.4104 -0.14065,32.8209 -41.6526,-0.1133 -83.30534,-0.2268 l 8.53344,-30.33475"
         id="path314" />
    </g>
    <g
       style="fill:#535d66;fill-opacity:0.996078;stroke-linejoin:miter"
       id="g320">
      <path
         d="m 281.87262,986.28595 v 4.5e-4 q 168.4454,1.3151 336.89088,2.62907 -3.88057,13.53793 -7.7611,27.07613 -178.25942,-0.6831 -356.51876,-1.3663 l 27.38898,-28.33935"
         id="path318" />
    </g>
    <g
       style="fill:#ffffff;fill-opacity:0.207843;stroke-linejoin:miter"
       id="g324">
      <path
         d="m 137.30223,412.27673 -66.73308,15.83405 13.36358,81.4162 53.3695,-97.25025"
         id="path322" />
    </g>
    <g
       style="fill:#ffffff;fill-opacity:0.203922;stroke-linejoin:miter"
       id="g328">
      <path
         d="m 154.43507,1021.6489 58.5401,-144.255 14.55411,101.05996 -73.09421,43.19504"
         id="path326" />
    </g>
    <g
       style="fill:#ffffff;fill-opacity:1;stroke-linejoin:miter"
       id="g332">
      <path
         d="m 137.39519,1004.5386 321.87251,6e-4 321.8727,6e-4 q 0,36.3059 1.6e-4,72.6121 -321.87286,4e-4 -643.74537,4e-4 0,-36.3068 0,-72.6137"
         id="path330" />
    </g>
    <g
       style="fill:#000000;fill-opacity:0.0941176;stroke-linejoin:miter"
       id="g336">
      <path
         d="m 133.83727,1023.8082 324.12093,8e-4 324.121,4e-4 q 2e-4,26.5159 2e-4,53.0317 -324.1212,3e-4 -648.24213,5e-4 0,-26.5166 0,-53.0334"
         id="path334" />
    </g>
    <g
       style="fill:#000000;fill-opacity:0.0980392;stroke-linejoin:miter"
       id="g340">
      <path
         d="M 37.040485,433.2764 66.1491,428.71 158.92662,1019.9906 129.8183,1024.559 37.040485,433.2764"
         id="path338" />
    </g>
  </g>
  <defs
     id="defs365">
    <linearGradient
       id="grad2"
       gradientUnits="userSpaceOnUse"
       x1="522.30353"
       y1="554.43365"
       x2="636.34125"
       y2="513.89093">
      <stop
         offset="0.0%"
         style="stop-color:rgb(255,255,255); stop-opacity:1.0"
         id="stop343" />
      <stop
         offset="100.0%"
         style="stop-color:rgb(0,229,122); stop-opacity:1.0"
         id="stop345" />
    </linearGradient>
    <linearGradient
       id="grad1"
       gradientUnits="userSpaceOnUse"
       x1="368.68863"
       y1="782.02985"
       x2="575.95654"
       y2="517.67731">
      <stop
         offset="0.0%"
         style="stop-color:rgb(255,255,255); stop-opacity:1.0"
         id="stop348" />
      <stop
         offset="100.0%"
         style="stop-color:rgb(246,251,255); stop-opacity:1.0"
         id="stop350" />
    </linearGradient>
    <linearGradient
       id="grad0"
       gradientUnits="userSpaceOnUse"
       x1="520.18195"
       y1="1055.3591"
       x2="653.52063"
       y2="-357.80728">
      <stop
         offset="0.0%"
         style="stop-color:rgb(255,255,255); stop-opacity:1.0"
         id="stop353" />
      <stop
         offset="100.0%"
         style="stop-color:rgb(99,112,121); stop-opacity:1.0"
         id="stop355" />
    </linearGradient>
    <linearGradient
       id="grad3"
       gradientUnits="userSpaceOnUse"
       x1="262.06284"
       y1="691.40015"
       x2="578.508"
       y2="653.0979">
      <stop
         offset="0.0%"
         style="stop-color:rgb(255,255,255); stop-opacity:1.0"
         id="stop358" />
      <stop
         offset="100.0%"
         style="stop-color:rgb(51,103,116); stop-opacity:1.0"
         id="stop360" />
      <stop
         offset="100.0%"
         style="stop-color:rgb(57,100,112); stop-opacity:1.0"
         id="stop362" />
    </linearGradient>
    <linearGradient
       inkscape:collect="always"
       xlink:href="#grad0"
       id="linearGradient581"
       gradientUnits="userSpaceOnUse"
       x1="520.18195"
       y1="1055.3591"
       x2="653.52063"
       y2="-357.80728" />
    <linearGradient
       inkscape:collect="always"
       xlink:href="#grad0"
       id="linearGradient583"
       gradientUnits="userSpaceOnUse"
       x1="520.18195"
       y1="1055.3591"
       x2="653.52063"
       y2="-357.80728" />
    <linearGradient
       inkscape:collect="always"
       xlink:href="#grad1"
       id="linearGradient585"
       gradientUnits="userSpaceOnUse"
       x1="368.68863"
       y1="782.02985"
       x2="575.95654"
       y2="517.67731" />
    <linearGradient
       inkscape:collect="always"
       xlink:href="#grad1"
       id="linearGradient587"
       gradientUnits="userSpaceOnUse"
       x1="368.68863"
       y1="782.02985"
       x2="575.95654"
       y2="517.67731" />
    <linearGradient
       inkscape:collect="always"
       xlink:href="#grad2"
       id="linearGradient589"
       gradientUnits="userSpaceOnUse"
       x1="522.30353"
       y1="554.43365"
       x2="636.34125"
       y2="513.89093" />
    <linearGradient
       inkscape:collect="always"
       xlink:href="#grad2"
       id="linearGradient591"
       gradientUnits="userSpaceOnUse"
       x1="522.30353"
       y1="554.43365"
       x2="636.34125"
       y2="513.89093" />
    <linearGradient
       inkscape:collect="always"
       xlink:href="#grad3"
       id="linearGradient593"
       gradientUnits="userSpaceOnUse"
       x1="262.06284"
       y1="691.40015"
       x2="578.508"
       y2="653.0979" />
    <linearGradient
       inkscape:collect="always"
       xlink:href="#grad3"
       id="linearGradient595"
       gradientUnits="userSpaceOnUse"
       x1="262.06284"
       y1="691.40015"
       x2="578.508"
       y2="653.0979" />
  </defs>
</svg>
